<?xml version="1.0" encoding="UTF-8" standalone="no"?>
<!-- Created with Inkscape (http://www.inkscape.org/) -->

<svg
   width="512"
   height="512"
   viewBox="0 0 512 512"
   version="1.1"
   id="svg1"
   xmlns="http://www.w3.org/2000/svg"
   xmlns:svg="http://www.w3.org/2000/svg">
  <defs
     id="defs1" />
  <g
     id="layer1">
    <g
       id="g1">
      <path
         d="M 256.06396,511.80563 C 200.41927,511.80078 146.28987,493.65584 101.88317,460.12058 57.475948,426.58789 25.209488,379.49213 9.9729777,325.97188 -5.2635383,272.45163 -2.6394653,215.42481 17.447128,163.52988 37.533988,111.63495 73.988918,67.702036 121.28817,38.387726 168.58614,9.0734255 224.15146,-4.0245625 279.56321,1.0786545 c 55.41432,5.103001 107.65222,28.1289715 148.80214,65.5888015 41.14992,37.460334 68.96714,87.312724 79.23862,142.002694 10.26893,54.68997 2.43413,111.23815 -22.3193,161.07521 -4.75565,9.09151 -5.98422,19.61896 -3.4554,29.56281 l 15.35732,57.01659 c 1.51526,5.63614 1.52038,11.57175 0.0129,17.20787 -1.50757,5.63871 -4.47408,10.77829 -8.60008,14.90429 -4.126,4.126 -9.26815,7.09251 -14.90429,8.60008 -5.63869,1.50759 -11.57173,1.50246 -17.20787,-0.0129 l -57.01658,-15.35732 c -9.88498,-2.48021 -20.33309,-1.24904 -29.37343,3.45539 -35.5138,17.66092 -74.48553,26.87787 -114.03317,26.87787 z"
         fill="#000000"
         id="path1"
         style="stroke-width:25.5955" />
      <path
         d="m 92.902228,255.90413 c 0,-15.90506 12.885292,-28.78985 28.790352,-28.78985 15.90249,0 28.78985,12.88479 28.78985,28.78985 0,28.00149 11.12381,54.864 30.9245,74.6647 19.8007,19.80071 46.66321,30.92451 74.66727,30.92707 28.00151,0 54.864,-11.12636 74.6647,-30.92707 19.80326,-19.8007 30.92709,-46.66321 30.92709,-74.6647 0,-15.90506 12.88733,-28.78985 28.78983,-28.78985 15.9025,0 28.78728,12.88479 28.78728,28.78985 0,43.27692 -17.18226,84.78261 -47.78429,115.38462 -30.602,30.602 -72.10771,47.78428 -115.38461,47.78428 -43.27692,0 -84.78518,-17.18228 -115.38719,-47.78428 -30.59945,-30.60201 -47.784782,-72.1077 -47.784782,-115.38462 z"
         fill="#ffffff"
         id="path2"
         style="stroke-width:25.5955" />
      <path
         d="m 92.902228,255.90413 c 0,15.90506 12.885292,28.78985 28.790352,28.78985 15.90249,0 28.78985,-12.88479 28.78985,-28.78985 0,-28.00149 11.12381,-54.86399 30.9245,-74.6647 19.8007,-19.80071 46.66321,-30.92451 74.66727,-30.92707 28.00151,0 54.864,11.12636 74.6647,30.92707 19.80326,19.80071 30.92709,46.66321 30.92709,74.6647 0,15.90506 12.88733,28.78985 28.78983,28.78985 15.9025,0 28.78728,-12.88479 28.78728,-28.78985 0,-43.27692 -17.18226,-84.78261 -47.78429,-115.38462 -30.602,-30.602 -72.10771,-47.784284 -115.38461,-47.784284 -43.27692,0 -84.78518,17.182284 -115.38719,47.784284 -30.59945,30.60201 -47.784782,72.1077 -47.784782,115.38462 z"
         fill="#ffffff"
         id="path2-3"
         style="stroke-width:25.5955" />
    </g>
  </g>
</svg>
